<?xml version="1.0" encoding="UTF-8" standalone="no"?>
<!-- Created with Inkscape (http://www.inkscape.org/) -->
<svg
   xmlns:dc="http://purl.org/dc/elements/1.1/"
   xmlns:cc="http://web.resource.org/cc/"
   xmlns:rdf="http://www.w3.org/1999/02/22-rdf-syntax-ns#"
   xmlns:svg="http://www.w3.org/2000/svg"
   xmlns="http://www.w3.org/2000/svg"
   xmlns:sodipodi="http://inkscape.sourceforge.net/DTD/sodipodi-0.dtd"
   xmlns:inkscape="http://www.inkscape.org/namespaces/inkscape"
   width="744.09448819"
   height="1052.3622047"
   id="svg2"
   sodipodi:version="0.32"
   inkscape:version="0.43"
   sodipodi:docbase="/home/markuz/programacion/python/christine/gui/pixmaps"
   sodipodi:docname="sound.svg">
  <defs
     id="defs4" />
  <sodipodi:namedview
     id="base"
     pagecolor="#ffffff"
     bordercolor="#666666"
     borderopacity="1.0"
     inkscape:pageopacity="0.0"
     inkscape:pageshadow="2"
     inkscape:zoom="0.49497475"
     inkscape:cx="224.28571"
     inkscape:cy="516.41031"
     inkscape:document-units="px"
     inkscape:current-layer="layer1"
     inkscape:window-width="1024"
     inkscape:window-height="705"
     inkscape:window-x="0"
     inkscape:window-y="21"
     showgrid="true"
     showguides="true"
     inkscape:guide-bbox="true">
    <sodipodi:guide
       orientation="horizontal"
       position="901.42857"
       id="guide2271" />
  </sodipodi:namedview>
  <metadata
     id="metadata7">
    <rdf:RDF>
      <cc:Work
         rdf:about="">
        <dc:format>image/svg+xml</dc:format>
        <dc:type
           rdf:resource="http://purl.org/dc/dcmitype/StillImage" />
      </cc:Work>
    </rdf:RDF>
  </metadata>
  <g
     inkscape:label="Layer 1"
     inkscape:groupmode="layer"
     id="layer1">
    <path
       style="opacity:1;fill:#000000;fill-opacity:0.18431373;stroke:#000000;stroke-width:3;stroke-miterlimit:4;stroke-dasharray:none;stroke-opacity:0.23428571"
       d="M 491.25 200.90625 C 483.57633 201.97351 476.84255 202.64975 471.03125 208.625 C 285.71993 302.93233 331.76077 436.30588 409.34375 531.90625 C 449.38253 574.75078 455.4557 593.89759 440.59375 611.75 C 414.00401 601.29281 382.41561 595.21875 348.5625 595.21875 C 253.93393 595.21875 177.15625 642.58321 177.15625 700.9375 C 177.15625 759.29179 253.93393 806.65624 348.5625 806.65625 C 431.03005 806.65625 499.98972 770.68141 516.34375 722.8125 C 583.88661 676.95362 638.69524 604.49869 555.90625 476.71875 C 466.49037 391.7552 440.67844 346.31128 469.28125 303.34375 C 473.07338 299.7237 479.06254 292.09086 487.59375 289.8125 C 504.56382 307.38156 521.20496 324.95243 539.25 336.40625 C 556.50779 343.23704 575.00227 361.59683 592.1875 347.96875 L 595.03125 258.65625 C 579.03517 274.20905 560.68642 260.35649 544.09375 252.375 C 526.32295 240.12853 510.39711 217.63637 493.3125 203.53125 C 493.28775 203.51082 493.27475 203.48914 493.25 203.46875 L 491.25 200.90625 z "
       id="path2288" />
  </g>
</svg>
