<?xml version="1.0" encoding="UTF-8" standalone="no"?>
<!-- Created with Inkscape (http://www.inkscape.org/) -->
<svg
   xmlns:dc="http://purl.org/dc/elements/1.1/"
   xmlns:cc="http://web.resource.org/cc/"
   xmlns:rdf="http://www.w3.org/1999/02/22-rdf-syntax-ns#"
   xmlns:svg="http://www.w3.org/2000/svg"
   xmlns="http://www.w3.org/2000/svg"
   xmlns:xlink="http://www.w3.org/1999/xlink"
   xmlns:sodipodi="http://sodipodi.sourceforge.net/DTD/sodipodi-0.dtd"
   xmlns:inkscape="http://www.inkscape.org/namespaces/inkscape"
   width="744.09448819"
   height="1052.3622047"
   id="svg2"
   sodipodi:version="0.32"
   inkscape:version="0.45.1"
   sodipodi:docbase="/home/markuz/programacion/python/christine/christine/gui/pixmaps"
   sodipodi:docname="sound.svg"
   inkscape:output_extension="org.inkscape.output.svg.inkscape">
  <defs
     id="defs4">
    <linearGradient
       inkscape:collect="always"
       id="linearGradient5615">
      <stop
         style="stop-color:white;stop-opacity:1;"
         offset="0"
         id="stop5617" />
      <stop
         style="stop-color:white;stop-opacity:0;"
         offset="1"
         id="stop5619" />
    </linearGradient>
    <linearGradient
       inkscape:collect="always"
       id="linearGradient5604">
      <stop
         style="stop-color:white;stop-opacity:1;"
         offset="0"
         id="stop5606" />
      <stop
         style="stop-color:white;stop-opacity:0;"
         offset="1"
         id="stop5608" />
    </linearGradient>
    <linearGradient
       inkscape:collect="always"
       id="linearGradient5594">
      <stop
         style="stop-color:white;stop-opacity:1;"
         offset="0"
         id="stop5596" />
      <stop
         style="stop-color:white;stop-opacity:0;"
         offset="1"
         id="stop5598" />
    </linearGradient>
    <linearGradient
       id="linearGradient5580">
      <stop
         style="stop-color:white;stop-opacity:1;"
         offset="0"
         id="stop5582" />
      <stop
         style="stop-color:white;stop-opacity:0;"
         offset="1"
         id="stop5584" />
    </linearGradient>
    <linearGradient
       inkscape:collect="always"
       xlink:href="#linearGradient5580"
       id="linearGradient5590"
       x1="341.43155"
       y1="487.6795"
       x2="341.43155"
       y2="759.41797"
       gradientUnits="userSpaceOnUse"
       spreadMethod="pad" />
    <linearGradient
       inkscape:collect="always"
       xlink:href="#linearGradient5594"
       id="linearGradient5600"
       x1="536.39099"
       y1="451.32141"
       x2="536.39099"
       y2="659.41284"
       gradientUnits="userSpaceOnUse" />
    <linearGradient
       inkscape:collect="always"
       xlink:href="#linearGradient5604"
       id="linearGradient5610"
       x1="597.9165"
       y1="769.16278"
       x2="434.86557"
       y2="332.77777"
       gradientUnits="userSpaceOnUse"
       gradientTransform="translate(-4.04061,6.060915)" />
    <linearGradient
       inkscape:collect="always"
       xlink:href="#linearGradient5615"
       id="linearGradient5621"
       x1="532.5058"
       y1="105.52482"
       x2="537.9115"
       y2="357.55789"
       gradientUnits="userSpaceOnUse" />
    <filter
       inkscape:collect="always"
       id="filter5146">
      <feGaussianBlur
         inkscape:collect="always"
         stdDeviation="13.283407"
         id="feGaussianBlur5148" />
    </filter>
  </defs>
  <sodipodi:namedview
     id="base"
     pagecolor="#ffffff"
     bordercolor="#666666"
     borderopacity="1.0"
     inkscape:pageopacity="0.0"
     inkscape:pageshadow="2"
     inkscape:zoom="0.70000002"
     inkscape:cx="327.14286"
     inkscape:cy="581.66341"
     inkscape:document-units="px"
     inkscape:current-layer="layer1"
     inkscape:window-width="1280"
     inkscape:window-height="756"
     inkscape:window-x="2"
     inkscape:window-y="17"
     showgrid="true"
     showguides="true"
     inkscape:guide-bbox="true">
    <sodipodi:guide
       orientation="horizontal"
       position="901.42857"
       id="guide2271" />
  </sodipodi:namedview>
  <metadata
     id="metadata7">
    <rdf:RDF>
      <cc:Work
         rdf:about="">
        <dc:format>image/svg+xml</dc:format>
        <dc:type
           rdf:resource="http://purl.org/dc/dcmitype/StillImage" />
      </cc:Work>
    </rdf:RDF>
  </metadata>
  <g
     inkscape:label="Layer 1"
     inkscape:groupmode="layer"
     id="layer1"
     style="display:inline">
    <path
       style="opacity:0.5;fill:#000000;fill-opacity:0.9662162;stroke:#000000;stroke-width:3;stroke-miterlimit:4;stroke-dasharray:none;stroke-opacity:1;filter:url(#filter5146)"
       d="M 502.9375,206.65625 C 460.32131,216.97672 416.20877,231.34866 384.6875,263.15625 C 357.6695,289.78142 350.12272,331.31424 359.20094,367.4796 C 371.62687,428.11068 409.13036,479.62782 431.375,536.65625 C 435.44578,549.33595 440.35034,563.02233 437.375,576.375 C 434.69628,587.00307 424.92781,593.59305 414.84375,596.15625 C 384.43879,605.90236 351.6772,597.98979 320.8125,604 C 277.1571,610.13544 232.91383,627.09878 202.78125,660.3125 C 184.0904,681.62013 174.91403,713.16228 185.65625,740.375 C 198.09631,774.17779 229.38984,796.59805 261.61058,809.79087 C 321.1415,834.4193 389.91079,834.41293 450.53893,813.48133 C 482.8709,801.67972 514.49415,781.67813 531,750.59375 C 533.64666,743.89248 537.80488,737.94661 543.86757,734.01773 C 579.50472,702.27422 607.56231,658.40926 608.88538,609.43837 C 610.65924,560.59883 589.72722,514.76019 565.2036,473.84435 C 540.01263,431.52373 506.4735,393.9347 486.1875,348.78125 C 481.97878,338.29624 481.46788,323.72021 492.15625,316.9375 C 494.39083,315.29618 498.15236,311.32329 500.10543,315.73084 C 523.11015,339.10622 547.67833,364.58462 580.78125,372.25 C 591.39713,374.12123 602.7712,372.55561 612.0625,367 C 613.2619,329.48998 614.43871,291.9792 615.625,254.46875 C 606.91714,268.1121 588.27542,274.36811 573.5,267.34375 C 546.11329,253.23717 528.46843,227.31768 506.15625,207.125 C 505.1418,206.70941 504.03274,206.53755 502.9375,206.65625 z "
       id="path2178" />
    <path
       style="opacity:1;fill:#800000;fill-opacity:1;stroke:black;stroke-width:3;stroke-miterlimit:4;stroke-dasharray:none;stroke-opacity:1"
       d="M 491.25,200.90625 C 128.60442,285.43384 619.52454,604.90169 348.5625,595.21875 C 253.93393,595.21875 177.15625,642.58321 177.15625,700.9375 C 177.15625,759.29179 253.93393,806.65624 348.5625,806.65625 C 431.03005,806.65625 499.98972,770.68141 516.34375,722.8125 C 738.76473,538.20454 368.31447,337.72331 487.59375,289.8125 C 510.27054,313.07549 556.69038,363.89113 592.1875,347.96875 L 595.03125,258.65625 C 557.58731,282.58711 517.79538,226.0448 493.3125,203.53125 C 493.28775,203.51082 493.27475,203.48914 493.25,203.46875 L 491.25,200.90625 z "
       id="path2288"
       sodipodi:nodetypes="ccssccccccc" />
    <path
       sodipodi:type="arc"
       style="fill:url(#linearGradient5590);fill-opacity:1.0;stroke:none;stroke-opacity:1"
       id="path4693"
       sodipodi:cx="341.43155"
       sodipodi:cy="696.78851"
       sodipodi:rx="141.42136"
       sodipodi:ry="62.629456"
       d="M 482.85291 696.78851 A 141.42136 62.629456 0 1 1  200.01019,696.78851 A 141.42136 62.629456 0 1 1  482.85291 696.78851 z"
       transform="matrix(0.822385,0,0,0.64732,57.61307,205.3375)" />
    <path
       style="fill:url(#linearGradient5610);fill-opacity:1;fill-rule:evenodd;stroke:none;stroke-width:1px;stroke-linecap:butt;stroke-linejoin:miter;stroke-opacity:1"
       d="M 578.18275,603.85446 C 552.41042,520.99525 545.63531,511.70878 432.98141,381.05569 C 415.28186,335.25542 429.0843,297.38805 446.48743,302.829 C 444.49368,415.4728 606.28522,496.87649 578.18275,603.85446 z "
       id="path5602"
       sodipodi:nodetypes="cccc" />
    <path
       style="fill:url(#linearGradient5621);fill-rule:evenodd;stroke:none;stroke-width:1px;stroke-linecap:butt;stroke-linejoin:miter;stroke-opacity:1;fill-opacity:1.0"
       d="M 490.38251,204.28096 C 520.00434,241.84659 566.2141,286.04565 592.19362,265.41367 C 610.90786,457.20268 471.30735,211.44521 490.38251,204.28096 z "
       id="path5612"
       sodipodi:nodetypes="ccc" />
  </g>
</svg>
