<?xml version="1.0" encoding="UTF-8" standalone="no"?>
<!-- Created with Inkscape (http://www.inkscape.org/) -->
<svg
   xmlns:dc="http://purl.org/dc/elements/1.1/"
   xmlns:cc="http://web.resource.org/cc/"
   xmlns:rdf="http://www.w3.org/1999/02/22-rdf-syntax-ns#"
   xmlns:svg="http://www.w3.org/2000/svg"
   xmlns="http://www.w3.org/2000/svg"
   xmlns:sodipodi="http://inkscape.sourceforge.net/DTD/sodipodi-0.dtd"
   xmlns:inkscape="http://www.inkscape.org/namespaces/inkscape"
   width="744.09448819"
   height="1052.3622047"
   id="svg2"
   sodipodi:version="0.32"
   inkscape:version="0.43"
   sodipodi:docbase="/home/markuz/programacion/python/christine/gui/pixmaps"
   sodipodi:docname="video.svg">
  <defs
     id="defs4" />
  <sodipodi:namedview
     id="base"
     pagecolor="#ffffff"
     bordercolor="#666666"
     borderopacity="1.0"
     inkscape:pageopacity="0.0"
     inkscape:pageshadow="2"
     inkscape:zoom="0.35"
     inkscape:cx="224.28571"
     inkscape:cy="516.41031"
     inkscape:document-units="px"
     inkscape:current-layer="layer1"
     inkscape:window-width="1024"
     inkscape:window-height="705"
     inkscape:window-x="0"
     inkscape:window-y="21"
     showgrid="true"
     showguides="true"
     inkscape:guide-bbox="true">
    <sodipodi:guide
       orientation="horizontal"
       position="901.42857"
       id="guide2271" />
  </sodipodi:namedview>
  <metadata
     id="metadata7">
    <rdf:RDF>
      <cc:Work
         rdf:about="">
        <dc:format>image/svg+xml</dc:format>
        <dc:type
           rdf:resource="http://purl.org/dc/dcmitype/StillImage" />
      </cc:Work>
    </rdf:RDF>
  </metadata>
  <g
     inkscape:label="Layer 1"
     inkscape:groupmode="layer"
     id="layer1">
    <path
       style="opacity:1;fill:#000000;fill-opacity:0.18431373;stroke:#898a8c;stroke-width:3;stroke-miterlimit:4;stroke-dasharray:none;stroke-opacity:0.23529412"
       d="M 48 191.875 L 48 809.875 L 700 809.875 L 700 191.875 L 48 191.875 z M 66.5 220.875 L 118.0625 220.875 L 118.0625 277.875 L 66.5 277.875 L 66.5 220.875 z M 626.84375 228.21875 L 678.4375 228.21875 L 678.4375 285.21875 L 626.84375 285.21875 L 626.84375 228.21875 z M 151.65625 263.96875 L 602.34375 263.96875 L 602.34375 720.75 L 151.65625 720.75 L 151.65625 263.96875 z M 67.5 315.875 L 119.0625 315.875 L 119.0625 372.875 L 67.5 372.875 L 67.5 315.875 z M 627.84375 323.21875 L 679.4375 323.21875 L 679.4375 380.21875 L 627.84375 380.21875 L 627.84375 323.21875 z M 68.5 413.28125 L 120.0625 413.28125 L 120.0625 470.28125 L 68.5 470.28125 L 68.5 413.28125 z M 628.84375 420.65625 L 680.4375 420.65625 L 680.4375 477.65625 L 628.84375 477.65625 L 628.84375 420.65625 z M 67.5 511.875 L 119.0625 511.875 L 119.0625 568.875 L 67.5 568.875 L 67.5 511.875 z M 627.84375 519.21875 L 679.4375 519.21875 L 679.4375 576.21875 L 627.84375 576.21875 L 627.84375 519.21875 z M 67.5 601.875 L 119.0625 601.875 L 119.0625 658.875 L 67.5 658.875 L 67.5 601.875 z M 627.84375 609.21875 L 679.4375 609.21875 L 679.4375 666.21875 L 627.84375 666.21875 L 627.84375 609.21875 z M 65.5 689.875 L 117.0625 689.875 L 117.0625 746.875 L 65.5 746.875 L 65.5 689.875 z M 625.84375 697.21875 L 677.4375 697.21875 L 677.4375 754.21875 L 625.84375 754.21875 L 625.84375 697.21875 z "
       id="rect1333" />
  </g>
</svg>
